<mxfile host="app.diagrams.net" modified="2022-10-10T12:57:03.351Z" agent="5.0 (Macintosh; Intel Mac OS X 10_15_7) AppleWebKit/537.36 (KHTML, like Gecko) Chrome/105.0.0.0 Safari/537.36" etag="VVSWHz3ltvn8I_bM-aRV" version="20.3.6" type="github">
  <diagram id="wpc6EUl_9DWEMbYwJ7Z1" name="第 1 页">
    <mxGraphModel dx="1513" dy="722" grid="0" gridSize="10" guides="1" tooltips="1" connect="1" arrows="1" fold="1" page="0" pageScale="1" pageWidth="827" pageHeight="1169" math="0" shadow="0">
      <root>
        <mxCell id="0" />
        <mxCell id="1" parent="0" />
        <mxCell id="IUgxR0jRfnMDvruj_oyX-1" value="" style="shape=curlyBracket;whiteSpace=wrap;html=1;rounded=1;" vertex="1" parent="1">
          <mxGeometry x="143" y="346" width="20" height="275" as="geometry" />
        </mxCell>
        <mxCell id="IUgxR0jRfnMDvruj_oyX-2" value="&lt;font style=&quot;font-size: 18px;&quot;&gt;组件中间层设计&lt;/font&gt;" style="rounded=0;whiteSpace=wrap;html=1;" vertex="1" parent="1">
          <mxGeometry x="-2" y="459.75" width="140" height="47.5" as="geometry" />
        </mxCell>
        <mxCell id="IUgxR0jRfnMDvruj_oyX-3" value="通用组件" style="rounded=0;whiteSpace=wrap;html=1;fontSize=18;" vertex="1" parent="1">
          <mxGeometry x="179" y="341.5" width="119" height="38" as="geometry" />
        </mxCell>
        <mxCell id="IUgxR0jRfnMDvruj_oyX-5" value="" style="shape=curlyBracket;whiteSpace=wrap;html=1;rounded=1;fontSize=18;" vertex="1" parent="1">
          <mxGeometry x="316" y="257" width="20" height="207" as="geometry" />
        </mxCell>
        <mxCell id="IUgxR0jRfnMDvruj_oyX-6" value="界面原子组件" style="rounded=0;whiteSpace=wrap;html=1;fontSize=18;" vertex="1" parent="1">
          <mxGeometry x="356" y="263" width="132" height="32" as="geometry" />
        </mxCell>
        <mxCell id="IUgxR0jRfnMDvruj_oyX-7" value="图表组件" style="rounded=0;whiteSpace=wrap;html=1;fontSize=18;" vertex="1" parent="1">
          <mxGeometry x="354" y="319" width="132" height="32" as="geometry" />
        </mxCell>
        <mxCell id="IUgxR0jRfnMDvruj_oyX-8" value="设置组件" style="rounded=0;whiteSpace=wrap;html=1;fontSize=18;" vertex="1" parent="1">
          <mxGeometry x="354" y="374" width="132" height="32" as="geometry" />
        </mxCell>
        <mxCell id="IUgxR0jRfnMDvruj_oyX-9" value="图层组件" style="rounded=0;whiteSpace=wrap;html=1;fontSize=18;" vertex="1" parent="1">
          <mxGeometry x="354" y="429" width="132" height="32" as="geometry" />
        </mxCell>
        <mxCell id="IUgxR0jRfnMDvruj_oyX-11" value="业务组件" style="rounded=0;whiteSpace=wrap;html=1;fontSize=18;" vertex="1" parent="1">
          <mxGeometry x="179" y="586" width="119" height="38" as="geometry" />
        </mxCell>
        <mxCell id="IUgxR0jRfnMDvruj_oyX-12" value="" style="shape=curlyBracket;whiteSpace=wrap;html=1;rounded=1;fontSize=18;" vertex="1" parent="1">
          <mxGeometry x="316" y="525" width="20" height="166" as="geometry" />
        </mxCell>
        <mxCell id="IUgxR0jRfnMDvruj_oyX-13" value="基础业务组件" style="rounded=0;whiteSpace=wrap;html=1;fontSize=18;" vertex="1" parent="1">
          <mxGeometry x="354" y="545" width="132" height="32" as="geometry" />
        </mxCell>
        <mxCell id="IUgxR0jRfnMDvruj_oyX-14" value="业务操作组件" style="rounded=0;whiteSpace=wrap;html=1;fontSize=18;" vertex="1" parent="1">
          <mxGeometry x="356" y="644" width="132" height="32" as="geometry" />
        </mxCell>
      </root>
    </mxGraphModel>
  </diagram>
</mxfile>
